<svg xmlns="http://www.w3.org/2000/svg" xmlns:xlink="http://www.w3.org/1999/xlink" width="606.411" height="637.935"
     viewBox="0 0 606.411 637.935">
    <defs>
        <clipPath id="a">
            <path d="M0,3.674H49.4v-55.3H0Z" transform="translate(0 51.63)" fill="#fff"/>
        </clipPath>
    </defs>
    <g transform="translate(-462.5 -138.965)">
        <g transform="translate(284.5 -59.089)">
            <circle cx="161.755" cy="161.755" r="161.755" transform="translate(319.45 255.659)" fill="#acf469"/>
            <circle cx="161.755" cy="161.755" r="161.755" transform="translate(421.043 434.858)" fill="#00acca"/>
            <circle cx="161.755" cy="161.755" r="161.755" transform="translate(216.47 435.651)" fill="#00c99c"/>
            <path d="M484.125,669.378a161.433,161.433,0,0,0,59.961,125.7,161.752,161.752,0,0,0-.985-250.611A161.429,161.429,0,0,0,484.125,669.378Z"
                  transform="translate(-63.082 -72.764)" fill="#17969b"/>
            <path d="M487.192,631.692A161.863,161.863,0,0,0,704.246,508.619,161.863,161.863,0,0,0,487.192,631.692Z"
                  transform="translate(-63.717 -63.142)" fill="#00d4e1"/>
            <path d="M359.119,509.076A161.883,161.883,0,0,0,574.7,632.443,161.883,161.883,0,0,0,359.119,509.076Z"
                  transform="translate(-37.196 -63.349)" fill="#6beb74"/>
            <path d="M544.922,651.934a161.406,161.406,0,0,0,56.3-10.075q-.332-1.877-.706-3.739c-.1-.52-.219-1.036-.328-1.554-.178-.84-.358-1.679-.549-2.514q-.193-.847-.4-1.689-.294-1.226-.607-2.445c-.135-.524-.267-1.05-.407-1.572q-.426-1.594-.884-3.174c-.1-.331-.189-.663-.286-.994q-.532-1.794-1.1-3.57c-.147-.456-.3-.908-.45-1.362q-.43-1.3-.882-2.591-.246-.7-.5-1.4-.5-1.375-1.018-2.737c-.14-.366-.275-.733-.417-1.1q-.742-1.9-1.527-3.778c-.078-.186-.161-.37-.239-.555q-.686-1.619-1.407-3.221c-.162-.359-.327-.716-.492-1.074q-.64-1.394-1.305-2.775c-.162-.335-.322-.67-.485-1q-.83-1.691-1.7-3.36c-.047-.09-.091-.181-.138-.27q-.987-1.89-2.024-3.751c-.084-.151-.171-.3-.256-.452q-.893-1.591-1.821-3.161c-.147-.248-.295-.5-.442-.744q-.917-1.533-1.867-3.044c-.1-.166-.206-.333-.311-.5q-2.292-3.616-4.765-7.1c-.066-.094-.134-.186-.2-.28q-1.138-1.6-2.314-3.161l-.3-.4q-3.9-5.167-8.2-10.006l-.12-.135q-1.411-1.584-2.862-3.13l-.067-.072q-4.509-4.8-9.4-9.224l-.036-.032q-3.261-2.951-6.682-5.725a161.62,161.62,0,0,0-56.546,96.849A161.357,161.357,0,0,0,544.922,651.934Z"
                  transform="translate(-63.717 -72.764)" fill="#233344"/>
            <circle cx="301.705" cy="301.705" r="301.705" transform="translate(179.5 231.078)" fill="none" stroke="#fff"
                    stroke-miterlimit="10" stroke-width="3"/>
        </g>
        <text transform="translate(723 320.225)" fill="#233344" font-size="28"
              font-family="Times New Roman" font-weight="700" letter-spacing="0.009em">
            <tspan x="0" y="0">Clients</tspan>
        </text>
        <text transform="matrix(0.921, 0.391, -0.391, 0.921, 856.448, 545.608)" fill="#233344" font-size="28"
              font-family="Times New Roman" font-weight="700" letter-spacing="0.009em">
            <tspan x="0" y="0">Utilisateurs</tspan>
        </text>
        <text transform="translate(521.213 574.659) rotate(-13)" fill="#233344" font-size="28"
              font-family="Times New Roman" font-weight="700" letter-spacing="0.009em">
            <tspan x="0" y="0">Coopérateurs</tspan>
        </text>
        <text transform="translate(889.818 418.538)" fill="#233344" font-size="17" font-family="Calibri, Arial"
              letter-spacing="0.009em">
            <tspan x="-70.946" y="0">Qualité &amp;</tspan>
            <tspan x="-75.769" y="20">Pertinence</tspan>
        </text>
        <text transform="translate(765.818 563.538)" fill="#233344" font-size="17" font-family="Calibri, Arial"
              letter-spacing="0.009em">
            <tspan x="-51.005" y="0">Co-conception</tspan>
            <tspan x="-39.135" y="20">&amp; inclusion</tspan>
        </text>
        <text transform="translate(680.818 418.538)" fill="#233344" font-size="17" font-family="Calibri, Arial"
              letter-spacing="0.009em">
            <tspan x="-42.821" y="0">Confiance &amp;</tspan>
            <tspan x="-42.476" y="20">coopération</tspan>
        </text>
        <g transform="matrix(0.998, 0.07, -0.07, 0.998, 250.452, -91.439)">
            <g transform="translate(541.837 193.078)">
                <path d="M549.1,194.312l.126,7.741.378-.006a3,3,0,0,0,2.6-1.178,6.985,6.985,0,0,0,.984-3.369l.533-.009.161,9.956-.533.009a7.432,7.432,0,0,0-.752-2.653,3.055,3.055,0,0,0-1.277-1.375,4.764,4.764,0,0,0-2.081-.324l.086,5.357a7.759,7.759,0,0,0,.164,1.919,1.158,1.158,0,0,0,.507.566,2.325,2.325,0,0,0,1.182.205l1.136-.018a6.13,6.13,0,0,0,6.5-5.1l.518-.009-.757,6.058-16.434.266-.009-.519.631-.01a2.624,2.624,0,0,0,1.327-.316,1.276,1.276,0,0,0,.55-.682,5.778,5.778,0,0,0,.125-1.77l-.2-12.509a9.91,9.91,0,0,0-.1-1.584,1.349,1.349,0,0,0-.531-.748,2.412,2.412,0,0,0-1.465-.369l-.631.01-.009-.519,15.916-.258.091,5.622-.533.009a6.851,6.851,0,0,0-1.191-2.94,4.249,4.249,0,0,0-2.1-1.285,11.306,11.306,0,0,0-2.949-.2Z"
                      transform="translate(-541.837 -193.078)" fill="#fff"/>
                <path d="M572.694,200.732l-.065,1.7a7.717,7.717,0,0,1,1.995-1.517,4.142,4.142,0,0,1,2.009-.422,3.174,3.174,0,0,1,2.09.788,3.4,3.4,0,0,1,1.054,1.8,13.568,13.568,0,0,1,.108,3.077l-.194,5.1a3.906,3.906,0,0,0,.2,1.9,1.6,1.6,0,0,0,1.124.512l-.019.505-6.629-.252.019-.5a1.389,1.389,0,0,0,1.089-.576,4.035,4.035,0,0,0,.29-1.73l.222-5.83a9.481,9.481,0,0,0-.049-2.037,1.239,1.239,0,0,0-.4-.668,1.068,1.068,0,0,0-.657-.257q-1.205-.045-2.307,1.639l-.267,7.021a3.914,3.914,0,0,0,.2,1.874,1.388,1.388,0,0,0,1,.529l-.019.505-6.629-.252.019-.5a1.628,1.628,0,0,0,1.2-.488,3.923,3.923,0,0,0,.308-1.813l.281-7.4a3.758,3.758,0,0,0-.2-1.861,1.669,1.669,0,0,0-1.124-.52l.02-.518Z"
                      transform="translate(-546.894 -194.575)" fill="#fff"/>
                <path d="M592.9,215.376l-3.541-10.505a10.033,10.033,0,0,0-1.047-2.425,1.666,1.666,0,0,0-.909-.57l.045-.517,6.945.59-.045.517a1.276,1.276,0,0,0-.914.161.96.96,0,0,0-.4.7,6.286,6.286,0,0,0,.45,1.995l1.735,5.088,2.078-4.088a8.19,8.19,0,0,0,.959-2.508.891.891,0,0,0-.255-.732,1.821,1.821,0,0,0-1.085-.395l.044-.517,4.277.363-.045.517a1.748,1.748,0,0,0-1.045.376,8.568,8.568,0,0,0-1.363,2.121l-5.232,9.887Z"
                      transform="translate(-551.047 -194.752)" fill="#fff"/>
                <path d="M611.487,202.235l-1.239,10.319a3.126,3.126,0,0,0,.109,1.8,1.747,1.747,0,0,0,1.2.59l-.06.5-7.032-.844.061-.5a1.711,1.711,0,0,0,1.341-.348,3.13,3.13,0,0,0,.483-1.665l.912-7.6a3.128,3.128,0,0,0-.109-1.8,1.725,1.725,0,0,0-1.187-.587l.062-.515Zm-1.193-6.542a2.167,2.167,0,1,1-1.594.452A2.088,2.088,0,0,1,610.294,195.693Z"
                      transform="translate(-554.497 -193.603)" fill="#fff"/>
                <path d="M622.314,205.221l-.449,2.939a9.6,9.6,0,0,1,2.668-2.323,3.39,3.39,0,0,1,1.972-.373,1.674,1.674,0,0,1,1.168.669,1.883,1.883,0,0,1,.257,1.423,2.137,2.137,0,0,1-.671,1.373,1.415,1.415,0,0,1-1.167.346,1.9,1.9,0,0,1-1.2-.666,7.971,7.971,0,0,0-.557-.624.615.615,0,0,0-.306-.132,1.178,1.178,0,0,0-.809.188,2.913,2.913,0,0,0-1.065,1.214,9.518,9.518,0,0,0-.9,2.9l-.456,2.982-.105.778a3.219,3.219,0,0,0-.057,1.027,1.115,1.115,0,0,0,.409.623,2.893,2.893,0,0,0,1.069.384l-.076.5-7-1.071.076-.5a1.55,1.55,0,0,0,1.215-.29,4.369,4.369,0,0,0,.617-2.041l1.1-7.168a5.486,5.486,0,0,0,.105-1.431,1.133,1.133,0,0,0-.315-.63,2.176,2.176,0,0,0-.891-.392l.079-.512Z"
                      transform="translate(-556.634 -195.369)" fill="#fff"/>
                <path d="M639.1,207.822a6.081,6.081,0,0,1,2.955,1.477,5.649,5.649,0,0,1,1.715,2.892,8.259,8.259,0,0,1,.069,3.642,7.538,7.538,0,0,1-2.283,4.313,5.588,5.588,0,0,1-5.074,1.326,5.413,5.413,0,0,1-4.077-2.909,7.66,7.66,0,0,1-.65-5.027,7.759,7.759,0,0,1,2.544-4.513A5.373,5.373,0,0,1,639.1,207.822Zm-.136.989a1.636,1.636,0,0,0-1.308.3,3.765,3.765,0,0,0-1.068,1.964q-.463,1.532-1,4.312a18.933,18.933,0,0,0-.345,2.791,2.711,2.711,0,0,0,.358,1.613,1.564,1.564,0,0,0,1.029.729,1.589,1.589,0,0,0,1.1-.144,2.348,2.348,0,0,0,.97-1.168,32.376,32.376,0,0,0,1.306-5.232,13.323,13.323,0,0,0,.365-3.266,2.5,2.5,0,0,0-.523-1.423A1.466,1.466,0,0,0,638.969,208.811Z"
                      transform="translate(-559.982 -196.032)" fill="#fff"/>
                <path d="M656.232,211.791l-.4,1.648a7.712,7.712,0,0,1,2.259-1.086,4.137,4.137,0,0,1,2.052-.01,3.172,3.172,0,0,1,1.889,1.191,3.385,3.385,0,0,1,.671,1.976,13.546,13.546,0,0,1-.511,3.037l-1.214,4.959a3.886,3.886,0,0,0-.182,1.9,1.6,1.6,0,0,0,1,.728l-.12.491-6.443-1.577.12-.49a1.387,1.387,0,0,0,1.182-.346,4.044,4.044,0,0,0,.631-1.636l1.386-5.667a9.5,9.5,0,0,0,.361-2.005,1.241,1.241,0,0,0-.26-.736,1.075,1.075,0,0,0-.592-.383q-1.172-.286-2.59,1.143l-1.67,6.826a3.912,3.912,0,0,0-.177,1.877,1.4,1.4,0,0,0,.87.719l-.12.49-6.443-1.577.12-.49a1.628,1.628,0,0,0,1.271-.238,3.936,3.936,0,0,0,.665-1.715l1.76-7.193a3.778,3.778,0,0,0,.175-1.864,1.67,1.67,0,0,0-1-.735l.123-.5Z"
                      transform="translate(-563.282 -196.604)" fill="#fff"/>
                <path d="M676.351,217.117l-.486,1.626a7.715,7.715,0,0,1,2.311-.972,4.149,4.149,0,0,1,2.05.093,3.176,3.176,0,0,1,1.826,1.285,3.4,3.4,0,0,1,.572,2.007,13.6,13.6,0,0,1-.664,3.007l-1.46,4.892a3.891,3.891,0,0,0-.278,1.885,1.6,1.6,0,0,0,.961.777l-.145.484-6.356-1.9.144-.483a1.387,1.387,0,0,0,1.2-.286,4.024,4.024,0,0,0,.712-1.6l1.669-5.591a9.557,9.557,0,0,0,.461-1.985,1.25,1.25,0,0,0-.223-.748,1.072,1.072,0,0,0-.572-.412q-1.156-.346-2.644,1.011l-2.01,6.732a3.915,3.915,0,0,0-.271,1.866,1.393,1.393,0,0,0,.834.761l-.144.484-6.357-1.9.145-.484a1.626,1.626,0,0,0,1.281-.173,3.936,3.936,0,0,0,.75-1.679l2.118-7.1a3.763,3.763,0,0,0,.267-1.852,1.663,1.663,0,0,0-.959-.784l.149-.5Z"
                      transform="translate(-567.235 -197.628)" fill="#fff"/>
                <path d="M699.93,231.4l-6.795-2.367a6.78,6.78,0,0,0-.045,4.351,2.932,2.932,0,0,0,1.815,1.865,2.649,2.649,0,0,0,1.6.059,5.946,5.946,0,0,0,1.948-1.111l.348.448a7.931,7.931,0,0,1-3.238,2.132,5.077,5.077,0,0,1-3.119-.128,4.974,4.974,0,0,1-3.433-3.573,7.913,7.913,0,0,1,.337-4.635,7.455,7.455,0,0,1,3.394-4.35,5.466,5.466,0,0,1,4.566-.466,4.5,4.5,0,0,1,2.727,2.68A7.462,7.462,0,0,1,699.93,231.4Zm-2.949-2.023a12.918,12.918,0,0,0,.787-3.008,2.537,2.537,0,0,0-.3-1.457,1.16,1.16,0,0,0-.658-.5,1.378,1.378,0,0,0-1.361.283,6.14,6.14,0,0,0-1.907,2.959l-.161.464Z"
                      transform="translate(-571.545 -199.192)" fill="#fff"/>
                <path d="M712.018,229.265l-.66,1.593a7.521,7.521,0,0,1,2.477-.757,4.353,4.353,0,0,1,2.039.336,3.652,3.652,0,0,1,1.731,1.355,3.713,3.713,0,0,1,.531,2.163,8.352,8.352,0,0,1,2.686-.861,4.446,4.446,0,0,1,2.2.306,3.453,3.453,0,0,1,1.763,1.406,3.246,3.246,0,0,1,.43,1.893,10.717,10.717,0,0,1-.882,2.952l-2.055,4.963a3.861,3.861,0,0,0-.467,1.841q.114.44.874.878l-.193.466-6.258-2.591.193-.467a1.5,1.5,0,0,0,1.324-.12,3.7,3.7,0,0,0,.9-1.51l2.158-5.209a10.454,10.454,0,0,0,.724-2.114,1.331,1.331,0,0,0-.137-.823,1.124,1.124,0,0,0-.566-.485,2.1,2.1,0,0,0-1.3-.059,5.673,5.673,0,0,0-1.66.747l-2.694,6.5a3.991,3.991,0,0,0-.461,1.737,1.451,1.451,0,0,0,.92,1l-.193.466-6.272-2.6.194-.467a1.494,1.494,0,0,0,.9.077,1.179,1.179,0,0,0,.614-.383,6.429,6.429,0,0,0,.669-1.34l2.157-5.209a10.224,10.224,0,0,0,.724-2.114,1.367,1.367,0,0,0-.166-.827,1.144,1.144,0,0,0-.557-.5,1.875,1.875,0,0,0-1.059-.12,5.722,5.722,0,0,0-1.865.837l-2.694,6.5a3.983,3.983,0,0,0-.448,1.8q.084.512.855.924l-.193.466-6.246-2.587.194-.467a1.63,1.63,0,0,0,1.293-.042,3.94,3.94,0,0,0,.917-1.593l2.833-6.842a3.75,3.75,0,0,0,.456-1.815q-.113-.44-.873-.878l.2-.48Z"
                      transform="translate(-574.226 -199.98)" fill="#fff"/>
                <path d="M743.205,250.086l-6.479-3.13a6.781,6.781,0,0,0-.543,4.317,2.934,2.934,0,0,0,1.589,2.061,2.658,2.658,0,0,0,1.581.242,5.929,5.929,0,0,0,2.061-.882l.3.486a7.934,7.934,0,0,1-3.46,1.747,5.075,5.075,0,0,1-3.085-.485,4.973,4.973,0,0,1-3-3.942,7.912,7.912,0,0,1,.866-4.565A7.447,7.447,0,0,1,736.9,242a5.471,5.471,0,0,1,4.589.06,4.509,4.509,0,0,1,2.4,2.975A7.457,7.457,0,0,1,743.205,250.086Zm-2.7-2.346a12.923,12.923,0,0,0,1.127-2.9,2.548,2.548,0,0,0-.133-1.482,1.167,1.167,0,0,0-.6-.57,1.38,1.38,0,0,0-1.385.126,6.127,6.127,0,0,0-2.233,2.721l-.214.442Z"
                      transform="translate(-580.298 -202.872)" fill="#fff"/>
                <path d="M755.077,249.221l-.806,1.493a7.723,7.723,0,0,1,2.459-.481,4.148,4.148,0,0,1,1.989.508,3.176,3.176,0,0,1,1.527,1.629,3.4,3.4,0,0,1,.152,2.082,13.628,13.628,0,0,1-1.261,2.809l-2.425,4.493a3.911,3.911,0,0,0-.656,1.79,1.607,1.607,0,0,0,.784.957l-.24.444-5.837-3.151.239-.444a1.388,1.388,0,0,0,1.231-.037,4.016,4.016,0,0,0,1.023-1.423l2.772-5.134a9.49,9.49,0,0,0,.854-1.849,1.238,1.238,0,0,0-.066-.777,1.069,1.069,0,0,0-.476-.52q-1.063-.573-2.794.452l-3.338,6.183a3.894,3.894,0,0,0-.645,1.772,1.389,1.389,0,0,0,.661.914l-.24.444-5.838-3.151.24-.444a1.629,1.629,0,0,0,1.289.09,3.923,3.923,0,0,0,1.076-1.491l3.517-6.516a3.761,3.761,0,0,0,.639-1.759,1.669,1.669,0,0,0-.779-.962l.246-.456Z"
                      transform="translate(-582.732 -203.914)" fill="#fff"/>
                <path d="M775.907,254.745l-2.445,4.127,2.679,1.587-.708,1.194-2.679-1.586-4.124,6.962a6.181,6.181,0,0,0-.657,1.315,1.051,1.051,0,0,0,.049.648.831.831,0,0,0,.318.425q.785.464,2.192-.316l.2.48a3.833,3.833,0,0,1-4.545.436,3.261,3.261,0,0,1-1.462-1.672,3.068,3.068,0,0,1-.157-1.895,13.209,13.209,0,0,1,1.194-2.291l3.609-6.094-1.471-.872.25-.422a18.13,18.13,0,0,0,3.925-.723,16.013,16.013,0,0,0,3.43-1.539Z"
                      transform="translate(-586.844 -205.496)" fill="#fff"/>
            </g>
        </g>
        <g transform="translate(741 445.63)" clip-path="url(#a)">
            <g transform="translate(0 0)">
                <path d="M1.773,3.639,22.479-8.2a4,4,0,0,0,2.012-3.467V-35.3a4,4,0,0,0-2.012-3.468L1.773-50.615a4.01,4.01,0,0,0-3.968,0L-22.9-38.772A4.007,4.007,0,0,0-24.913-35.3v23.632A4,4,0,0,0-22.9-8.2L-2.195,3.639a4,4,0,0,0,1.984.525,4,4,0,0,0,1.984-.525M21.9-9.222,1.19,2.62a2.83,2.83,0,0,1-2.8,0L-22.319-9.222a2.832,2.832,0,0,1-1.421-2.45V-35.3a2.829,2.829,0,0,1,1.421-2.45L-1.612-49.6a2.823,2.823,0,0,1,1.4-.372,2.817,2.817,0,0,1,1.4.372L21.9-37.754a2.827,2.827,0,0,1,1.421,2.45v23.632A2.829,2.829,0,0,1,21.9-9.222M.353-19.644H6.281a.505.505,0,0,0,.531-.5v-4.748a.529.529,0,0,0-.531-.531h-9.26a2.176,2.176,0,0,1-2.182-2.182v-8.346h12v3.923H-.177a.529.529,0,0,0-.531.531v3.156a.529.529,0,0,0,.531.531.529.529,0,0,0,.53-.531v-2.624H7.373A.53.53,0,0,0,7.9-31.5v-4.984a.53.53,0,0,0-.531-.531H-5.692a.529.529,0,0,0-.53.531v8.877a3.233,3.233,0,0,0,3.243,3.243H5.78v3.687H-.177a.528.528,0,0,0-.531.531v11.56H-5.161V-22.594a.528.528,0,0,0-.531-.53.528.528,0,0,0-.53.53v14.54a.528.528,0,0,0,.53.53H-.177a.528.528,0,0,0,.53-.53Z"
                      transform="translate(24.913 51.14)" fill="#fff"/>
            </g>
        </g>
    </g>
</svg>
