<svg xmlns="http://www.w3.org/2000/svg" width="15.562" height="14.964" viewBox="0 0 15.562 14.964"><path d="M16.313,4.2H13.768V3.6a.6.6,0,1,0-1.2,0v.6H7.483V3.6a.6.6,0,0,0-1.2,0v.6H3.75a1.5,1.5,0,0,0-1.5,1.5h0V16.464a1.5,1.5,0,0,0,1.5,1.5H16.313a1.5,1.5,0,0,0,1.5-1.492V5.7A1.5,1.5,0,0,0,16.313,4.2ZM3.75,5.393H6.286v.6a.6.6,0,0,0,1.2,0v-.6h5.089v.6a.6.6,0,0,0,1.2,0v-.6h2.544a.3.3,0,0,1,.3.3V7.339H3.446V5.7a.3.3,0,0,1,.3-.3ZM16.313,16.759H3.75a.3.3,0,0,1-.3-.3V8.536H16.616v7.929A.3.3,0,0,1,16.313,16.759Z" transform="translate(-2.25 -3)" fill="#233344"/></svg>