<svg xmlns="http://www.w3.org/2000/svg" viewBox="0 0 79.23 44.39"><defs><style>.cls-1{fill:#233344;}</style></defs><g id="Calque_2" data-name="Calque 2"><g id="Calque_1-2" data-name="Calque 1"><path class="cls-1" d="M66.19,44.39H11.63a11.65,11.65,0,0,1,0-23.29h0a13,13,0,0,1,2.87.36A13.48,13.48,0,0,1,28,8.84h0a13.51,13.51,0,0,1,5.93,1.38,16.72,16.72,0,0,1,32.05,8.09,13,13,0,0,1,1.77,26C67.2,44.36,66.69,44.39,66.19,44.39ZM11.63,23.1a9.65,9.65,0,0,0,0,19.29H66.17a9.53,9.53,0,0,0,1.3-.07A11,11,0,1,0,64.9,20.39l-1.33.15.23-1.32A14.72,14.72,0,0,0,35.36,12L35,13.14,33.9,12.5A11.52,11.52,0,0,0,28,10.84h0A11.49,11.49,0,0,0,16.47,22.32c0,.16,0,.31,0,.46l.06,1.53-1.42-.55a9.4,9.4,0,0,0-3.48-.66Z"/></g></g></svg>