<svg xmlns="http://www.w3.org/2000/svg" viewBox="0 0 30.48 29.72"><defs><style>.cls-1{fill:#00acca;}</style></defs><title>Fichier 5</title><g id="Calque_2" data-name="Calque 2"><g id="Calque_1-2" data-name="Calque 1"><g id="Layer_2" data-name="Layer 2"><path id="Tracé_151" data-name="Tracé 151" class="cls-1" d="M20.06,29.7a15.23,15.23,0,1,0-9.64,0c.76.14,1-.33,1-.74V27.24a.77.77,0,0,0-.79-.75h-.08c-3.5.38-4.27-2.19-4.27-2.19a4.12,4.12,0,0,0-1.7-2.23c-1.38-.95.1-.93.1-.93a3.19,3.19,0,0,1,2.34,1.58,3.13,3.13,0,0,0,4,1.44.76.76,0,0,0,.5-.58,4.56,4.56,0,0,1,.24-.71.78.78,0,0,0-.36-1.05h0a.48.48,0,0,0-.18-.06c-3-.58-5.73-2.22-5.73-7.38a5.9,5.9,0,0,1,1.1-3.52A1.62,1.62,0,0,0,6.9,9.58a5.24,5.24,0,0,1,0-2.16,1.38,1.38,0,0,1,1.64-1.1h0a.5.5,0,0,1,.13,0A9.34,9.34,0,0,1,10.88,7.4a1.65,1.65,0,0,0,1.24.2,14.16,14.16,0,0,1,6.28,0,1.61,1.61,0,0,0,1.23-.2,9.45,9.45,0,0,1,2.15-1,1.43,1.43,0,0,1,1.79,1h0a1.55,1.55,0,0,1,0,.21,5.15,5.15,0,0,1,0,2.07,1.62,1.62,0,0,0,.28,1.28A6,6,0,0,1,25,14.4c0,5.18-2.77,6.8-5.74,7.37a.77.77,0,0,0-.61.9.64.64,0,0,0,.06.18,4.69,4.69,0,0,1,.38,1.91V29C19.07,29.47,19.29,29.82,20.06,29.7Z"/></g></g></g></svg>