<svg xmlns="http://www.w3.org/2000/svg" width="178.687" height="387.862" viewBox="0 0 178.687 387.862">
  <path id="Path_191" data-name="Path 191" d="M1173.632,444.834V792.6a1.4,1.4,0,0,0,1.4,1.4h.173a1.431,1.431,0,0,0,1.431-1.431V444.834A26.863,26.863,0,0,0,1149.8,418H1048.173c-5.43-6.9-11.816-10.834-19-11.69a28.21,28.21,0,0,0-11.067,1.008,1.469,1.469,0,0,0-.442.135c-6.046,1.794-12.454,5.42-19.168,10.881-.021.017-.037.038-.056.056-.039.035-.074.07-.109.108-.017.019-.037.034-.053.054s-.023.037-.037.055c-.031.043-.059.086-.086.132s-.046.079-.066.121a1.357,1.357,0,0,0-.057.143,1.257,1.257,0,0,0-.041.132,1.491,1.491,0,0,0-.029.151c-.006.047-.012.093-.014.141,0,.024-.007.048-.007.073s.007.056.008.084c0,.044.007.087.014.131a1.546,1.546,0,0,0,.033.167c.01.037.021.072.034.108a1.426,1.426,0,0,0,.069.167c.015.032.032.062.05.093a1.5,1.5,0,0,0,.1.156c.021.027.042.053.064.078a1.621,1.621,0,0,0,.144.143c.012.011.022.024.035.035,11.157,9.075,21.477,13.123,30.677,12.023,7.179-.855,13.564-4.792,18.993-11.685h98.01l-19.839,19.839a18.468,18.468,0,0,1-13.141,5.443h-12.234c-5.431-6.9-11.817-10.834-19-11.69-9.2-1.1-19.52,2.948-30.677,12.023-.02.016-.035.037-.054.054a1.225,1.225,0,0,0-.109.109c-.017.019-.039.034-.055.055s-.024.039-.038.058a1.4,1.4,0,0,0-.08.121,1.368,1.368,0,0,0-.073.135c-.019.04-.034.081-.049.123a1.474,1.474,0,0,0-.049.157c-.01.039-.016.079-.023.12a1.709,1.709,0,0,0-.018.177c0,.019-.005.036-.005.055s.005.042.006.063a1.706,1.706,0,0,0,.018.175c.007.042.014.082.024.123s.03.1.049.156.031.08.049.119a1.58,1.58,0,0,0,.077.141,1.276,1.276,0,0,0,.072.109q.047.062.1.12c.033.036.067.069.1.1.02.018.036.039.057.056,11.157,9.075,21.477,13.124,30.677,12.024,7.179-.856,13.563-4.793,18.993-11.685H1113.2a21.446,21.446,0,0,0,15.262-6.322l21.944-21.944A23.853,23.853,0,0,1,1173.632,444.834ZM1017.947,410.5l7.5,7.5h-21.593A49.935,49.935,0,0,1,1017.947,410.5Zm10.873,19.208c-7.432.886-15.819-2.048-24.964-8.709h40.411C1039.708,426.1,1034.523,429.03,1028.82,429.711Zm.868-11.709-8.365-8.365a24.071,24.071,0,0,1,7.5-.344c5.7.68,10.889,3.6,15.448,8.709Zm51.925,19.57c5.7.68,10.887,3.608,15.446,8.709h-14.572l-8.365-8.366A24.062,24.062,0,0,1,1081.613,437.572Zm-10.868,1.208,7.495,7.5h-21.591A49.953,49.953,0,0,1,1070.745,438.78Zm10.868,19.21c-7.432.886-15.819-2.048-24.965-8.709h40.411C1092.5,454.383,1087.316,457.31,1081.613,457.99Z" transform="translate(-997.945 -406.138)" fill="#fff"/>
</svg>
