<svg xmlns="http://www.w3.org/2000/svg" viewBox="0 0 26.85 23.86"><defs><style>.cls-1{fill:#00acca;}</style></defs><title>Fichier 6</title><g id="Calque_2" data-name="Calque 2"><g id="Calque_1-2" data-name="Calque 1"><g id="Layer_2-2" data-name="Layer 2-2"><path id="Tracé_152" data-name="Tracé 152" class="cls-1" d="M2.61,9.14h0a5.59,5.59,0,0,1-1.35-.21.87.87,0,0,0-1.08.59.89.89,0,0,0,0,.43,6,6,0,0,0,4.52,4.41,5.72,5.72,0,0,1-1.54.21.7.7,0,0,0-.7.7.71.71,0,0,0,.07.32,5.87,5.87,0,0,0,5,3.07H8a1,1,0,1,1,0,2.05H8a11.92,11.92,0,0,1-2.31-.25,2.7,2.7,0,0,0-1.49.08,11.15,11.15,0,0,1-2.74.64.69.69,0,0,0-.64.67h0a.68.68,0,0,0,.4.62,16.19,16.19,0,0,0,6.58,1.39c10.81,0,16.72-9.19,16.72-17.15h0a1.62,1.62,0,0,1,.56-1.23,12,12,0,0,0,1.69-1.73.34.34,0,0,0-.07-.47.34.34,0,0,0-.31,0,11,11,0,0,1-1.88.47.1.1,0,0,1-.12-.08.1.1,0,0,1,0-.1,6.06,6.06,0,0,0,1.86-2.19.33.33,0,0,0-.45-.45,11.65,11.65,0,0,1-1.8.72,2,2,0,0,1-1.83-.36A5.75,5.75,0,0,0,18.65,0,5.9,5.9,0,0,0,13,4.49a.71.71,0,0,0,.54.84h0a.55.55,0,0,0,.18,0A14.39,14.39,0,0,0,16,5.07a1.06,1.06,0,0,1,1.2.6A1,1,0,0,1,16.6,7h0l-.11,0a13,13,0,0,1-5,.22h0a16.59,16.59,0,0,1-10-5.34.68.68,0,0,0-1-.07.72.72,0,0,0-.2.29,6.15,6.15,0,0,0-.33,2A6,6,0,0,0,2.61,9.14Z"/></g></g></g></svg>